# xmcd
#
# Track frame offsets:
#	150
#	15512
#	31780
#	48667
#	62292
#	74265
#	89935
#	105660
#	118345
#	131055
#	150505
#	167320
#	183655
#	196147
#	208467
#
# Disc length: 2962 seconds
#
# Revision: 0
# Processed by: cddbd v1.5.2PL0 Copyright (c) Steve Scherf et al.
# Submitted via: dBpowerAMP V4.0
#
DISCID=d20b900f
DTITLE=Bruno Masi - trilhos fortes
DYEAR=2006
DGENRE=Polka
TTITLE0=trilhos fortes
TTITLE1=pode namorar
TTITLE2=tentar de novo
TTITLE3=a camisa e o botao
TTITLE4=cataz
TTITLE5=i dont wanna
TTITLE6=justa forma
TTITLE7=diz pro mundo
TTITLE8=anunciacao
TTITLE9=voo 1697
TTITLE10=sempre ha um lugar
TTITLE11=arma zen
TTITLE12=por onde
TTITLE13=maybe more
TTITLE14=a camisa e o botao (ex)
EXTD=
EXTT0=
EXTT1=
EXTT2=
EXTT3=
EXTT4=
EXTT5=
EXTT6=
EXTT7=
EXTT8=
EXTT9=
EXTT10=
EXTT11=
EXTT12=
EXTT13=
EXTT14=
PLAYORDER=
